<svg width="1254" height="1254" viewBox="0 0 1254 1254" fill="none" xmlns="http://www.w3.org/2000/svg">
<g filter="url(#filter0_d_15_6)">
<path d="M596.895 161.636C603.083 152.859 609.123 144.175 610.331 142.339L612.519 139L613.419 151.458C613.909 158.308 614.388 212.378 614.661 379.329L603.448 395.286C597.283 404.062 583.049 424.327 571.824 440.306C560.6 456.286 540.406 485.019 526.936 504.133C513.478 523.247 494.014 550.954 483.678 565.68C473.353 580.405 459.701 599.895 453.342 608.991C446.972 618.086 438.345 630.521 426.551 647.742H467.006C489.25 647.742 507.461 648.005 507.461 648.312C507.461 648.62 486.823 677.866 461.593 713.301C436.363 748.725 389.161 814.763 356.706 860.045C324.239 905.328 292.445 949.664 274.417 974.773L22 974.853L29.054 964.88C32.9286 959.398 51.0479 933.879 69.304 908.177C87.5714 882.476 121.406 834.777 144.493 802.18C167.581 769.582 198.874 725.474 214.031 704.16C229.187 682.847 259.192 640.528 280.719 610.13C302.234 579.733 324.205 548.697 329.527 541.175C334.849 533.653 342.803 522.369 347.19 516.1C351.589 509.832 371.851 481.11 392.215 452.274C412.58 423.438 443.679 379.329 461.331 354.255C478.971 329.18 504.601 292.765 518.287 273.332C531.973 253.899 552.725 224.402 564.417 207.796C576.098 191.19 590.719 170.412 596.895 161.636Z" fill="white"/>
<path d="M638.513 381.039V260.225C638.513 193.777 638.775 139.41 639.082 139.41C639.401 139.41 643.595 144.927 648.404 151.663C653.225 158.399 661.327 169.808 666.421 177.022C671.515 184.226 688.95 208.844 705.167 231.731C721.383 254.606 744.22 286.918 755.901 303.535C767.593 320.142 792.527 355.531 811.318 382.179C830.11 408.815 856.195 445.743 869.289 464.241C882.371 482.728 905.972 516.066 921.71 538.326L927.448 546.432C944.567 570.616 973.184 611.043 995.144 642.044C1019.79 676.829 1042.37 708.628 1045.32 712.709C1048.27 716.778 1058.28 730.888 1067.56 744.052C1076.84 757.216 1086.33 770.551 1088.65 773.686C1090.96 776.82 1100.99 790.919 1110.93 805.029C1120.87 819.128 1142.15 849.138 1158.23 871.705C1174.31 894.272 1197.04 926.322 1208.75 942.94C1220.46 959.546 1230.02 973.531 1230 973.998C1229.98 974.465 1173.42 974.819 978.677 974.728L967.942 959.683C962.039 951.419 945.607 928.488 931.43 908.747C917.254 888.995 895.704 858.997 883.545 842.071C871.397 825.146 849.13 794.11 834.087 773.116C819.045 752.11 801.279 727.24 794.624 717.837C787.968 708.434 774.407 689.458 764.482 675.666C754.567 661.875 746.271 649.953 746.043 649.167C745.724 648.05 754.157 647.742 785.518 647.742C807.455 647.742 825.404 647.48 825.404 647.172C825.404 646.853 820.686 639.81 814.919 631.501C809.142 623.192 792.652 599.724 778.271 579.357C763.878 558.978 746.123 533.846 738.796 523.509C731.468 513.16 715.035 489.829 702.272 471.65C689.497 453.471 669.931 425.649 638.513 381.039Z" fill="white"/>
<path d="M593.59 632.926C600.485 623.203 610.707 608.74 616.325 600.773C625.442 587.871 626.707 586.503 628.051 588.236C628.883 589.307 635.276 598.391 642.262 608.421C649.247 618.451 676.028 656.142 701.793 692.193C727.548 728.232 761.895 776.193 778.1 798.76C794.316 821.328 823.74 862.359 843.477 889.941C863.226 917.523 885.767 949.06 893.573 960.036C901.379 971.001 907.966 980.495 908.217 981.122C908.456 981.748 894.246 1011.5 876.628 1047.23C859.01 1082.96 844.207 1111.68 843.717 1111.05C843.238 1110.43 827.991 1089.14 809.826 1063.75C791.672 1038.36 764.128 999.893 748.63 978.272C733.132 956.64 713.417 929.206 704.813 917.295C696.209 905.385 678.706 881.017 665.908 863.157C653.111 845.285 639.071 825.795 626.798 809.018L624.393 811.982C623.071 813.623 618.878 819.265 615.083 824.519C611.277 829.785 602.251 842.299 595.026 852.329C587.79 862.359 567.277 890.819 549.432 915.586C531.597 940.341 508.703 972.14 498.561 986.25C488.419 1000.35 473.889 1020.61 466.254 1031.27C458.63 1041.93 450.505 1053.21 448.191 1056.35C445.889 1059.48 435.838 1073.28 407.748 1112L343.361 982.831L385.138 924.419C408.124 892.289 430.596 860.877 435.098 854.608C439.588 848.34 452.681 830.126 464.18 814.147C475.678 798.156 506.686 754.823 533.079 717.837C559.483 680.852 586.707 642.636 593.59 632.926Z" fill="white"/>
</g>
<defs>
<filter id="filter0_d_15_6" x="18" y="139" width="1216" height="981" filterUnits="userSpaceOnUse" color-interpolation-filters="sRGB">
<feFlood flood-opacity="0" result="BackgroundImageFix"/>
<feColorMatrix in="SourceAlpha" type="matrix" values="0 0 0 0 0 0 0 0 0 0 0 0 0 0 0 0 0 0 127 0" result="hardAlpha"/>
<feOffset dy="4"/>
<feGaussianBlur stdDeviation="2"/>
<feComposite in2="hardAlpha" operator="out"/>
<feColorMatrix type="matrix" values="0 0 0 0 0 0 0 0 0 0 0 0 0 0 0 0 0 0 0.25 0"/>
<feBlend mode="normal" in2="BackgroundImageFix" result="effect1_dropShadow_15_6"/>
<feBlend mode="normal" in="SourceGraphic" in2="effect1_dropShadow_15_6" result="shape"/>
</filter>
</defs>
</svg>
